<svg version="1.1" xmlns="http://www.w3.org/2000/svg" xmlns:xlink="http://www.w3.org/1999/xlink" width="48" height="48" viewBox="0,0,256,256"><defs><linearGradient x1="23.99995" y1="7" x2="23.99995" y2="41" gradientUnits="userSpaceOnUse" id="color-1"><stop offset="0" stop-color="#00ffb4" style="--darkreader-inline-stopcolor: #00cc9f;" data-darkreader-inline-stopcolor=""></stop><stop offset="1" stop-color="#1e88e5" style="--darkreader-inline-stopcolor: #156ab5;" data-darkreader-inline-stopcolor=""></stop></linearGradient><linearGradient x1="6.9998" y1="24" x2="41.0001" y2="24" gradientUnits="userSpaceOnUse" id="color-2"><stop offset="0" stop-color="#0064ff" stop-opacity="0" style="--darkreader-inline-stopcolor: #0050cc;" data-darkreader-inline-stopcolor=""></stop><stop offset="0.434" stop-color="#0d47a1" stop-opacity="0.016" style="--darkreader-inline-stopcolor: #0a3981;" data-darkreader-inline-stopcolor=""></stop><stop offset="0.59" stop-color="#0d47a1" stop-opacity="0.072" style="--darkreader-inline-stopcolor: #0a3981;" data-darkreader-inline-stopcolor=""></stop><stop offset="0.701" stop-color="#0d47a1" stop-opacity="0.1" style="--darkreader-inline-stopcolor: #0a3981;" data-darkreader-inline-stopcolor=""></stop><stop offset="0.791" stop-color="#0d47a1" stop-opacity="0.15" style="--darkreader-inline-stopcolor: #0a3981;" data-darkreader-inline-stopcolor=""></stop><stop offset="0.868" stop-color="#0d47a1" stop-opacity="0.3" style="--darkreader-inline-stopcolor: #0a3981;" data-darkreader-inline-stopcolor=""></stop><stop offset="0.935" stop-color="#354257" stop-opacity="0.70196" style="--darkreader-inline-stopcolor: #2a3546;" data-darkreader-inline-stopcolor=""></stop><stop offset="0.968" stop-color="#21467e" style="--darkreader-inline-stopcolor: #1a3865;" data-darkreader-inline-stopcolor=""></stop><stop offset="1" stop-color="#21467e" style="--darkreader-inline-stopcolor: #1a3865;" data-darkreader-inline-stopcolor=""></stop></linearGradient><linearGradient x1="24" y1="40.82157" x2="24" y2="6.8223" gradientUnits="userSpaceOnUse" id="color-3"><stop offset="0" stop-color="#0064ff" stop-opacity="0" style="--darkreader-inline-stopcolor: #0050cc;" data-darkreader-inline-stopcolor=""></stop><stop offset="0.434" stop-color="#0d47a1" stop-opacity="0.016" style="--darkreader-inline-stopcolor: #0a3981;" data-darkreader-inline-stopcolor=""></stop><stop offset="0.59" stop-color="#0d47a1" stop-opacity="0.072" style="--darkreader-inline-stopcolor: #0a3981;" data-darkreader-inline-stopcolor=""></stop><stop offset="0.701" stop-color="#0d47a1" stop-opacity="0.1" style="--darkreader-inline-stopcolor: #0a3981;" data-darkreader-inline-stopcolor=""></stop><stop offset="0.791" stop-color="#0d47a1" stop-opacity="0.15" style="--darkreader-inline-stopcolor: #0a3981;" data-darkreader-inline-stopcolor=""></stop><stop offset="0.868" stop-color="#0d47a1" stop-opacity="0.3" style="--darkreader-inline-stopcolor: #0a3981;" data-darkreader-inline-stopcolor=""></stop><stop offset="0.935" stop-color="#354257" stop-opacity="0.70196" style="--darkreader-inline-stopcolor: #2a3546;" data-darkreader-inline-stopcolor=""></stop><stop offset="0.968" stop-color="#21467e" style="--darkreader-inline-stopcolor: #1a3865;" data-darkreader-inline-stopcolor=""></stop><stop offset="1" stop-color="#21467e" style="--darkreader-inline-stopcolor: #1a3865;" data-darkreader-inline-stopcolor=""></stop></linearGradient><linearGradient x1="40.96174" y1="24" x2="6.96247" y2="24" gradientUnits="userSpaceOnUse" id="color-4"><stop offset="0" stop-color="#0064ff" stop-opacity="0" style="--darkreader-inline-stopcolor: #0050cc;" data-darkreader-inline-stopcolor=""></stop><stop offset="0.434" stop-color="#0d47a1" stop-opacity="0.016" style="--darkreader-inline-stopcolor: #0a3981;" data-darkreader-inline-stopcolor=""></stop><stop offset="0.59" stop-color="#0d47a1" stop-opacity="0.072" style="--darkreader-inline-stopcolor: #0a3981;" data-darkreader-inline-stopcolor=""></stop><stop offset="0.701" stop-color="#0d47a1" stop-opacity="0.1" style="--darkreader-inline-stopcolor: #0a3981;" data-darkreader-inline-stopcolor=""></stop><stop offset="0.791" stop-color="#0d47a1" stop-opacity="0.15" style="--darkreader-inline-stopcolor: #0a3981;" data-darkreader-inline-stopcolor=""></stop><stop offset="0.868" stop-color="#0d47a1" stop-opacity="0.3" style="--darkreader-inline-stopcolor: #0a3981;" data-darkreader-inline-stopcolor=""></stop><stop offset="0.935" stop-color="#354257" stop-opacity="0.70196" style="--darkreader-inline-stopcolor: #2a3546;" data-darkreader-inline-stopcolor=""></stop><stop offset="0.968" stop-color="#21467e" style="--darkreader-inline-stopcolor: #1a3865;" data-darkreader-inline-stopcolor=""></stop><stop offset="1" stop-color="#21467e" style="--darkreader-inline-stopcolor: #1a3865;" data-darkreader-inline-stopcolor=""></stop></linearGradient><linearGradient x1="24" y1="6.85757" x2="24" y2="40.85787" gradientUnits="userSpaceOnUse" id="color-5"><stop offset="0" stop-color="#0064ff" stop-opacity="0" style="--darkreader-inline-stopcolor: #0050cc;" data-darkreader-inline-stopcolor=""></stop><stop offset="0.434" stop-color="#0d47a1" stop-opacity="0.016" style="--darkreader-inline-stopcolor: #0a3981;" data-darkreader-inline-stopcolor=""></stop><stop offset="0.59" stop-color="#0d47a1" stop-opacity="0.072" style="--darkreader-inline-stopcolor: #0a3981;" data-darkreader-inline-stopcolor=""></stop><stop offset="0.701" stop-color="#0d47a1" stop-opacity="0.1" style="--darkreader-inline-stopcolor: #0a3981;" data-darkreader-inline-stopcolor=""></stop><stop offset="0.791" stop-color="#0d47a1" stop-opacity="0.15" style="--darkreader-inline-stopcolor: #0a3981;" data-darkreader-inline-stopcolor=""></stop><stop offset="0.868" stop-color="#0d47a1" stop-opacity="0.3" style="--darkreader-inline-stopcolor: #0a3981;" data-darkreader-inline-stopcolor=""></stop><stop offset="0.935" stop-color="#354257" stop-opacity="0.70196" style="--darkreader-inline-stopcolor: #2a3546;" data-darkreader-inline-stopcolor=""></stop><stop offset="0.968" stop-color="#21467e" style="--darkreader-inline-stopcolor: #1a3865;" data-darkreader-inline-stopcolor=""></stop><stop offset="1" stop-color="#21467e" style="--darkreader-inline-stopcolor: #1a3865;" data-darkreader-inline-stopcolor=""></stop></linearGradient><linearGradient x1="23.354" y1="10.333" x2="23.354" y2="39" gradientUnits="userSpaceOnUse" id="color-6"><stop offset="0" stop-color="#ffffff" style="--darkreader-inline-stopcolor: #181a1b;" data-darkreader-inline-stopcolor=""></stop><stop offset="0.325" stop-color="#fbfbfc" style="--darkreader-inline-stopcolor: #1a1c1d;" data-darkreader-inline-stopcolor=""></stop><stop offset="0.662" stop-color="#eeeef4" style="--darkreader-inline-stopcolor: #202324;" data-darkreader-inline-stopcolor=""></stop><stop offset="1" stop-color="#dadae6" style="--darkreader-inline-stopcolor: #2a2d2f;" data-darkreader-inline-stopcolor=""></stop></linearGradient></defs><g fill="none" fill-rule="nonzero" stroke="none" stroke-width="1" stroke-linecap="butt" stroke-linejoin="miter" stroke-miterlimit="10" stroke-dasharray="" stroke-dashoffset="0" font-family="none" font-weight="none" font-size="none" text-anchor="none" style="mix-blend-mode: normal; --darkreader-inline-stroke: none;" data-darkreader-inline-stroke=""><g transform="scale(5.33333,5.33333)"><path d="M10,7h28c1.657,0 3,1.343 3,3v28c0,1.657 -1.343,3 -3,3h-28c-1.657,0 -3,-1.343 -3,-3v-28c0,-1.657 1.343,-3 3,-3z" fill="url(#color-1)"></path><g opacity="0.66"><path d="M10,7h28c1.657,0 3,1.343 3,3v28c0,1.657 -1.343,3 -3,3h-28c-1.657,0 -3,-1.343 -3,-3v-28c0,-1.657 1.343,-3 3,-3z" fill="url(#color-2)"></path><path d="M7,38v-28c0,-1.657 1.343,-3 3,-3h28c1.657,0 3,1.343 3,3v28c0,1.657 -1.343,3 -3,3h-28c-1.657,0 -3,-1.343 -3,-3z" fill="url(#color-3)"></path><path d="M38,41h-28c-1.657,0 -3,-1.343 -3,-3v-28c0,-1.657 1.343,-3 3,-3h28c1.657,0 3,1.343 3,3v28c0,1.657 -1.343,3 -3,3z" fill="url(#color-4)"></path><path d="M41,10v28c0,1.657 -1.343,3 -3,3h-28c-1.657,0 -3,-1.343 -3,-3v-28c0,-1.657 1.343,-3 3,-3h28c1.657,0 3,1.343 3,3z" fill="url(#color-5)"></path></g><path d="M34.5,21h-13.5v-5.293c0,-0.445 -0.539,-0.669 -0.854,-0.354l-8.293,8.293c-0.195,0.195 -0.195,0.512 0,0.707l8.293,8.293c0.315,0.315 0.854,0.092 0.854,-0.353v-5.293h13.5c0.276,0 0.5,-0.224 0.5,-0.5v-5c0,-0.276 -0.224,-0.5 -0.5,-0.5z" fill="url(#color-6)"></path></g></g></svg>